<?xml version="1.0"?>
<svg xmlns="http://www.w3.org/2000/svg" xmlns:xlink="http://www.w3.org/1999/xlink" xmlns:svgjs="http://svgjs.com/svgjs" version="1.1" width="512" height="512" x="0" y="0" viewBox="0 0 511.993 511.993" style="enable-background:new 0 0 512 512" xml:space="preserve" class=""><g><g xmlns="http://www.w3.org/2000/svg"><path d="m392.415 388.194c-2.929-2.929-7.678-2.93-10.606-.001-2.93 2.929-2.93 7.678-.001 10.606l13.813 13.814c6.43 6.431 6.43 16.895 0 23.324l-49.163 49.163c-.053.053-.109.112-.163.169-.023.024-.046.049-.069.074-12.248 12.064-30.792 15.09-46.245 7.51-90.529-44.346-160.412-105.032-213.642-185.523-2.284-3.455-6.937-4.404-10.393-2.119-3.455 2.285-4.404 6.938-2.119 10.393 27.109 40.994 59.276 77.775 95.606 109.32 36.27 31.491 77.971 58.879 123.943 81.399 7.778 3.815 16.126 5.67 24.411 5.67 14.39 0 28.586-5.597 39.237-16.233.081-.082.161-.166.239-.252l48.963-48.963c12.277-12.278 12.277-32.258 0-44.536z" fill="#ffffff" data-original="#000000" style=""/><path d="m49.012 241.909c-7.598-15.525-4.479-34.181 7.76-46.421.598-.782 48.505-48.502 49.168-49.229 6.43-6.43 16.893-6.432 23.324 0l47.535 47.536c4.87 4.869 6.198 12.34 3.306 18.589l-18.646 40.282c-5.523 11.935-2.987 26.199 6.311 35.498l85.945 85.945c8.94 8.765 22.96 11.945 35.504 6.313l40.276-18.648c6.246-2.898 13.714-1.573 18.582 3.295l8.962 8.963c2.93 2.93 7.679 2.929 10.606.001 2.93-2.929 2.93-7.678.001-10.606l-8.962-8.964c-9.303-9.301-23.568-11.833-35.497-6.298l-40.265 18.644c-5.225 2.535-13.894 1.601-18.852-3.557l-85.694-85.695c-4.87-4.869-6.198-12.34-3.305-18.59l18.646-40.282c5.522-11.934 2.986-26.199-6.312-35.497l-47.535-47.536c-.006-.006-.013-.011-.02-.018-12.279-12.259-32.245-12.253-44.518.018-1.091 1.165-48.745 48.606-49.774 49.847-16.268 16.777-20.309 41.982-10.019 63.008 5.983 12.214 12.367 24.244 18.973 35.757 2.062 3.593 6.645 4.837 10.237 2.772 3.593-2.061 4.834-6.645 2.772-10.237-6.441-11.232-12.67-22.971-18.509-34.89z" fill="#ffffff" data-original="#000000" style=""/><path d="m368.533 28.987h-46.875c-4.143 0-7.5 3.357-7.5 7.5v31.563h-31.562c-4.143 0-7.5 3.357-7.5 7.5v46.875c0 4.143 3.357 7.5 7.5 7.5h31.562v31.562c0 4.143 3.357 7.5 7.5 7.5h46.875c4.143 0 7.5-3.357 7.5-7.5v-31.562h31.562c4.143 0 7.5-3.357 7.5-7.5v-46.875c0-4.143-3.357-7.5-7.5-7.5h-31.562v-31.563c0-4.142-3.358-7.5-7.5-7.5zm31.562 54.063v31.875h-31.562c-4.143 0-7.5 3.357-7.5 7.5v31.562h-31.875v-31.562c0-4.143-3.357-7.5-7.5-7.5h-31.562v-31.875h31.562c4.143 0 7.5-3.357 7.5-7.5v-31.563h31.875v31.563c0 4.143 3.357 7.5 7.5 7.5z" fill="#ffffff" data-original="#000000" style=""/><path d="m442.814 0h-129.134c-4.143 0-7.5 3.357-7.5 7.5s3.357 7.5 7.5 7.5h129.134c13.389 0 24.281 10.845 24.281 24.176v62.448c0 4.143 3.357 7.5 7.5 7.5s7.5-3.357 7.5-7.5v-62.448c0-21.602-17.621-39.176-39.281-39.176z" fill="#ffffff" data-original="#000000" style=""/><path d="m474.595 129.573c-4.143 0-7.5 3.357-7.5 7.5v21.725c0 13.33-10.893 24.176-24.281 24.176h-74.891c-5.926 0-11.797 1.962-16.532 5.524l-59.902 45.063v-33.088c0-9.649-7.851-17.5-17.5-17.5h-26.612c-13.389 0-24.281-10.846-24.281-24.176v-119.621c0-13.331 10.893-24.176 24.281-24.176h31.304c4.143 0 7.5-3.357 7.5-7.5s-3.357-7.5-7.5-7.5h-31.304c-21.66 0-39.281 17.574-39.281 39.176v119.622c0 21.602 17.621 39.176 39.281 39.176h26.612c1.379 0 2.5 1.121 2.5 2.5v40.101c0 4.388 2.438 8.33 6.364 10.289 1.64.818 3.398 1.222 5.147 1.222 2.44 0 4.859-.784 6.902-2.321l65.506-49.279c2.152-1.619 4.821-2.511 7.515-2.511h74.891c21.66 0 39.281-17.574 39.281-39.176v-21.725c0-4.143-3.357-7.501-7.5-7.501z" fill="#ffffff" data-original="#000000" style=""/></g></g></svg>
